<?xml version="1.0"?>
<svg xmlns="http://www.w3.org/2000/svg" id="Capa_1" enable-background="new 0 0 512 512" height="512px" viewBox="0 0 512 512" width="512px" class=""><g><path d="m497 150c8.284 0 15-6.716 15-15v-60c0-8.284-6.716-15-15-15h-85v-45c0-8.284-6.716-15-15-15h-60c-8.284 0-15 6.716-15 15v45h-27c-3.245 0-6.403 1.053-9 3l-40 30c-3.777 2.833-6 7.278-6 12s2.223 9.167 6 12l40 30c2.597 1.947 5.755 3 9 3h27v30h-55.345c-9.597-35.145-38.912-62.233-75.269-68.581 8.549-11.607 13.614-25.93 13.614-41.419 0-38.599-31.401-70-70-70s-70 31.401-70 70c0 15.489 5.065 29.812 13.614 41.419-44.602 7.787-78.614 46.785-78.614 93.581v110c0 24.813 20.187 45 45 45 5.259 0 10.305-.915 15-2.58v109.58c0 24.813 20.187 45 45 45 11.517 0 22.032-4.354 30-11.495 7.968 7.141 18.483 11.495 30 11.495 24.813 0 45-20.187 45-45v-109.58c4.695 1.665 9.741 2.58 15 2.58 24.813 0 45-20.187 45-45v-45h52v227c0 8.284 6.716 15 15 15h60c8.284 0 15-6.716 15-15v-227h45c3.245 0 6.403-1.053 9-3l40-30c3.777-2.833 6-7.278 6-12s-2.223-9.167-6-12l-40-30c-2.597-1.947-5.755-3-9-3h-45v-30zm-145-120h30v30h-30zm-72 75 20-15h182v30h-182zm-145-75c22.056 0 40 17.944 40 40s-17.944 40-40 40-40-17.944-40-40 17.944-40 40-40zm105 285c0 8.271-6.729 15-15 15s-15-6.729-15-15v-106.667c0-8.284-6.716-15-15-15s-15 6.716-15 15v106.667c0 .447.021.888.034 1.331-.01.223-.034.443-.034.669v150c0 8.271-6.729 15-15 15s-15-6.729-15-15v-150c0-8.284-6.716-15-15-15s-15 6.716-15 15v150c0 8.271-6.729 15-15 15s-15-6.729-15-15v-258.667c0-8.284-6.716-15-15-15s-15 6.716-15 15v106.667c0 8.271-6.729 15-15 15s-15-6.729-15-15v-110c0-35.841 29.159-65 65-65h80c35.841 0 65 29.159 65 65zm142 167h-30v-212h30zm90-257-20 15h-182v-30h182zm-90-45h-30v-30h30z" data-original="#000000" class="active-path" data-old_color="#000000" fill="#1ABD9D"/></g> </svg>
