<?xml version="1.0"?>
<svg xmlns="http://www.w3.org/2000/svg" xmlns:xlink="http://www.w3.org/1999/xlink" version="1.1" id="Capa_1" x="0px" y="0px" viewBox="0 0 480.204 480.204" style="enable-background:new 0 0 480.204 480.204;" xml:space="preserve" width="512px" height="512px" class=""><g><g>
	<g>
		<path d="M475.07,375.826l-11.047-4.875c-0.43-1.547-0.898-3.031-1.398-4.477l6.156-10.609c1.414-2.446,1.438-5.454,0.063-7.922    c-3.238-5.767-7.1-11.161-11.516-16.086c-1.935-2.177-4.905-3.122-7.742-2.461l-11.625,2.656    c-1.141-0.891-2.313-1.755-3.516-2.594l-1.125-12.328c-0.258-2.845-2.016-5.335-4.609-6.531c-5.93-2.77-12.154-4.859-18.555-6.227    c-2.852-0.608-5.808,0.393-7.703,2.609l-8.141,9.453h-3.906l-8.141-9.453c-1.89-2.224-4.851-3.227-7.703-2.609    c-6.4,1.368-12.625,3.456-18.555,6.227c-2.594,1.196-4.351,3.687-4.609,6.531l-1.125,12.328c-1.203,0.836-2.375,1.7-3.516,2.594    l-11.625-2.656c-2.837-0.657-5.805,0.287-7.742,2.461c-4.417,4.924-8.276,10.322-11.508,16.094    c-1.375,2.465-1.352,5.471,0.062,7.914l6.148,10.602c-0.5,1.445-0.966,2.94-1.398,4.484l-11.047,4.875    c-2.902,1.277-4.775,4.149-4.773,7.32v18.109c-0.002,3.171,1.871,6.043,4.773,7.32l11.047,4.875    c0.43,1.547,0.898,3.031,1.398,4.477l-6.156,10.61c-1.414,2.445-1.438,5.454-0.063,7.922c3.238,5.767,7.1,11.161,11.516,16.086    c1.937,2.178,4.911,3.123,7.75,2.461l11.609-2.664c1.141,0.898,2.32,1.766,3.523,2.602l1.125,12.328    c0.258,2.845,2.016,5.335,4.609,6.531c5.93,2.77,12.154,4.859,18.555,6.227c2.852,0.606,5.807-0.395,7.703-2.609l8.141-9.453    h3.906l8.141,9.453c1.519,1.767,3.733,2.783,6.063,2.781c0.551,0.001,1.101-0.057,1.641-0.172    c6.401-1.368,12.625-3.456,18.555-6.227c2.594-1.196,4.351-3.687,4.609-6.531l1.125-12.328c1.203-0.836,2.375-1.701,3.516-2.594    l11.625,2.656c2.837,0.662,5.808-0.283,7.742-2.461c4.415-4.924,8.277-10.319,11.516-16.086c1.375-2.468,1.351-5.476-0.063-7.922    l-6.156-10.609c0.5-1.445,0.969-2.93,1.398-4.477l11.047-4.875c2.902-1.277,4.775-4.149,4.773-7.32v-18.11    C479.845,379.976,477.972,377.103,475.07,375.826z M453.992,400.389c-2.318,1.019-4.014,3.077-4.57,5.547    c-0.731,3.295-1.74,6.523-3.016,9.648c-0.954,2.306-0.781,4.925,0.469,7.086l5.695,9.813c-1.289,2-2.68,3.948-4.172,5.844    l-10.719-2.453c-2.509-0.586-5.146,0.084-7.07,1.797c-2.492,2.186-5.162,4.159-7.984,5.898c-2.14,1.322-3.535,3.573-3.766,6.078    l-1.039,11.422c-2.148,0.844-4.305,1.578-6.453,2.188l-7.328-8.508c-1.52-1.765-3.733-2.78-6.062-2.781h-11.234    c-2.329,0.001-4.542,1.017-6.062,2.781l-7.328,8.508c-2.148-0.609-4.305-1.344-6.453-2.188l-1.039-11.422    c-0.231-2.505-1.625-4.756-3.766-6.078c-2.821-1.737-5.489-3.711-7.977-5.898c-1.934-1.708-4.571-2.38-7.086-1.805l-10.711,2.453    c-1.492-1.883-2.883-3.836-4.172-5.836l5.695-9.813c1.249-2.161,1.423-4.779,0.469-7.086c-1.276-3.125-2.285-6.353-3.016-9.648    c-0.557-2.47-2.253-4.528-4.57-5.547l-9.852-4.344v-7.688l9.852-4.344c2.318-1.019,4.014-3.077,4.57-5.547    c0.732-3.3,1.741-6.533,3.016-9.664c0.954-2.304,0.781-4.92-0.469-7.078l-5.688-9.813c1.281-1.992,2.672-3.945,4.164-5.836    l10.719,2.453c2.509,0.577,5.142-0.092,7.07-1.797c2.492-2.186,5.162-4.159,7.984-5.898c2.14-1.322,3.535-3.573,3.766-6.078    l1.039-11.422c2.148-0.844,4.305-1.578,6.453-2.188l7.328,8.508c1.52,1.765,3.733,2.78,6.063,2.781h11.234    c2.329-0.001,4.542-1.017,6.063-2.781l7.328-8.508c2.148,0.609,4.305,1.344,6.453,2.188l1.039,11.422    c0.231,2.505,1.626,4.756,3.766,6.078c2.822,1.739,5.492,3.712,7.984,5.898c1.928,1.706,4.562,2.375,7.07,1.797l10.719-2.453    c1.492,1.891,2.883,3.838,4.172,5.844l-5.695,9.813c-1.249,2.161-1.423,4.779-0.469,7.086c1.276,3.125,2.285,6.353,3.016,9.648    c0.557,2.47,2.253,4.528,4.57,5.547l9.852,4.344l0,7.688L453.992,400.389z" data-original="#000000" class="active-path" data-old_color="#000000" fill="#FFFFFF"/>
	</g>
</g><g>
	<g>
		<path d="M392.359,352.201c-22.091,0-40,17.909-40,40c0,22.091,17.909,40,40,40c22.091,0,40-17.909,40-40    C432.333,370.121,414.44,352.227,392.359,352.201z M392.359,416.201c-13.255,0-24-10.745-24-24s10.745-24,24-24s24,10.745,24,24    C416.344,405.45,405.608,416.187,392.359,416.201z" data-original="#000000" class="active-path" data-old_color="#000000" fill="#FFFFFF"/>
	</g>
</g><g>
	<g>
		<path d="M224.359,32.201c-66.274,0-120,53.726-120,120c0.072,66.244,53.756,119.928,120,120c66.274,0,120-53.726,120-120    S290.633,32.201,224.359,32.201z M124.682,181.849c-16.385-55.039,14.95-112.94,69.989-129.326    c9.635-2.868,19.635-4.324,29.688-4.322c10.041,0.009,20.027,1.479,29.645,4.362c-1.954,1.288-3.986,2.534-5.793,3.896    c-2.737,2.061-3.858,5.636-2.789,8.891l3.672,11.18c-1.508,1.422-2.984,2.898-4.406,4.406l-11.172-3.672    c-3.251-1.051-6.811,0.064-8.883,2.781c-5.911,7.763-10.852,16.218-14.711,25.18c-1.344,3.152-0.53,6.809,2.023,9.094l8.898,7.969    c-0.609,1.992-1.148,4-1.625,6.008l-11.594,2.438c-3.701,0.78-6.351,4.045-6.352,7.828v27.281c0.001,3.783,2.65,7.048,6.352,7.828    l11.594,2.438c0.477,2.008,1.016,4.016,1.617,6.008l-8.891,7.969c-2.553,2.285-3.367,5.942-2.023,9.094    c3.859,8.956,8.794,17.408,14.695,25.172c2.061,2.737,5.636,3.859,8.891,2.789l11.18-3.672c1.422,1.508,2.898,2.984,4.406,4.406    l-3.672,11.172c-1.066,3.251,0.051,6.82,2.781,8.883c1.808,1.366,3.846,2.618,5.805,3.91    C198.968,268.224,141.067,236.889,124.682,181.849z M272.561,244.271c-3.465-1.768-6.834-3.719-10.093-5.843l3.461-10.531    c1.016-3.097,0.055-6.501-2.43-8.609c-3.691-3.122-7.117-6.545-10.242-10.234c-2.111-2.476-5.508-3.432-8.602-2.422l-10.563,3.477    c-2.623-3.854-4.985-7.878-7.07-12.047l8.391-7.523c2.429-2.174,3.297-5.604,2.195-8.672c-1.64-4.53-2.897-9.19-3.758-13.93    c-0.579-3.203-3.041-5.737-6.227-6.406l-10.352-2.18v-14.297l10.352-2.18c3.186-0.67,5.648-3.203,6.227-6.406    c0.864-4.745,2.121-9.409,3.758-13.946c1.102-3.066,0.233-6.493-2.195-8.664l-8.391-7.515c2.087-4.168,4.449-8.193,7.07-12.047    l10.57,3.477c3.097,1.008,6.496,0.049,8.609-2.43c3.122-3.691,6.545-7.117,10.234-10.242c2.479-2.11,3.436-5.509,2.422-8.602    l-3.461-10.531c3.26-2.12,6.628-4.068,10.091-5.836c10.938,5.775,20.763,13.445,29.02,22.655    c-38.337,10.306-61.061,49.739-50.755,88.076c6.656,24.759,25.996,44.099,50.755,50.755    C293.323,230.826,283.498,238.496,272.561,244.271z M264.929,144.244c3.531-24.539,22.809-43.817,47.348-47.348    c21.443,33.752,21.443,76.858,0,110.61C281.732,203.112,260.534,174.788,264.929,144.244z" data-original="#000000" class="active-path" data-old_color="#000000" fill="#FFFFFF"/>
	</g>
</g><g>
	<g>
		<path d="M435.116,136.733l-9.594-4.234c-0.328-1.148-0.672-2.273-1.047-3.375l5.352-9.227c1.414-2.443,1.438-5.449,0.063-7.914    c-2.939-5.24-6.444-10.142-10.453-14.617c-1.939-2.182-4.915-3.129-7.758-2.469l-10.078,2.305    c-0.852-0.656-1.719-1.297-2.602-1.914l-0.984-10.727c-0.266-2.838-2.017-5.321-4.602-6.523    c-5.389-2.523-11.048-4.424-16.867-5.664c-2.758-0.581-5.618,0.337-7.523,2.414l-8.83,9.595    C322.926,9.268,231.821-21.414,156.706,15.853S50.908,144.224,88.175,219.34c2.227,4.489,4.675,8.865,7.335,13.112l-21.401,26.75    c-1.36,1.709-1.967,3.897-1.68,6.062c0.286,2.169,1.453,4.124,3.227,5.406l17.374,12.635L2.148,395.154    c-2.787,3.439-2.258,8.486,1.181,11.273c0.01,0.008,0.02,0.016,0.029,0.024l40,32c3.435,2.741,8.436,2.204,11.211-1.203    l92.908-114.344l16.178,11.766c3.457,2.515,8.281,1.868,10.953-1.469l24.962-31.205c65.836,11.411,131.298-22.019,160.654-82.043    l8.751,9.63c1.517,1.668,3.667,2.618,5.922,2.617c0.551,0.001,1.101-0.057,1.641-0.172c5.822-1.24,11.484-3.141,16.875-5.664    c2.584-1.202,4.336-3.686,4.602-6.523l0.984-10.727c0.883-0.625,1.75-1.266,2.594-1.914l10.086,2.305    c2.843,0.665,5.822-0.283,7.758-2.469c4.005-4.474,7.507-9.373,10.445-14.609c1.381-2.465,1.361-5.476-0.055-7.922l-5.352-9.227    c0.375-1.102,0.719-2.227,1.047-3.375l9.594-4.234c2.902-1.277,4.775-4.149,4.773-7.32v-16.297    C439.891,140.882,438.019,138.01,435.116,136.733z M47.156,420.998L19.648,398.99l86.344-106.258l28.523,20.75L47.156,420.998z     M166.882,317.24l-16.133-11.734l-0.91-0.662l-58.004-42.189l13.242-16.542c19.647,24.952,46.603,43.136,77.097,52.008    L166.882,317.24z M224.359,288.201c-75.111,0-136-60.889-136-136c0.084-75.076,60.924-135.916,136-136    c75.111,0,136,60.889,136,136S299.47,288.201,224.359,288.201z M423.89,155.139l-8.383,3.695c-2.318,1.019-4.014,3.077-4.57,5.547    c-0.651,2.929-1.545,5.798-2.672,8.578c-0.954,2.301-0.78,4.915,0.469,7.07l4.875,8.406c-0.977,1.492-2.021,2.953-3.133,4.383    l-9.141-2.094c-2.51-0.589-5.15,0.078-7.078,1.789c-2.214,1.945-4.587,3.701-7.094,5.25c-2.13,1.323-3.518,3.566-3.75,6.063    l-0.898,9.789c-1.633,0.633-3.271,1.188-4.914,1.664l-10.445-11.498c12.288-33.339,12.27-69.969-0.05-103.295l10.472-11.371    c1.641,0.477,3.297,1.039,4.938,1.672l0.898,9.789c0.233,2.5,1.624,4.747,3.758,6.07c2.506,1.544,4.877,3.297,7.086,5.242    c1.93,1.707,4.568,2.374,7.078,1.789l9.141-2.094c1.109,1.43,2.154,2.891,3.133,4.383l-4.875,8.406    c-1.249,2.155-1.422,4.769-0.469,7.07c1.127,2.78,2.021,5.65,2.672,8.578c0.557,2.47,2.253,4.528,4.57,5.547l8.383,3.695V155.139z    " data-original="#000000" class="active-path" data-old_color="#000000" fill="#FFFFFF"/>
	</g>
</g></g> </svg>
